<?xml version="1.0" standalone="no"?>
<!DOCTYPE svg PUBLIC "-//W3C//DTD SVG 20010904//EN"
 "http://www.w3.org/TR/2001/REC-SVG-20010904/DTD/svg10.dtd">
<svg version="1.0" xmlns="http://www.w3.org/2000/svg"
 width="200.000000pt" height="200.000000pt" viewBox="0 0 200.000000 200.000000"
 preserveAspectRatio="xMidYMid meet">

<g transform="translate(0.000000,200.000000) scale(0.100000,-0.100000)"
fill="#000000" stroke="none">
<path d="M990 1987 c-42 -21 -72 -76 -67 -121 14 -104 129 -146 194 -71 82 94
-19 247 -127 192z m107 -49 c30 -28 31 -85 2 -122 -27 -34 -42 -33 -23 2 7 15
14 41 14 57 0 17 -7 42 -14 58 -18 33 -10 35 21 5z"/>
<path d="M195 1860 c-64 -32 -75 -59 -94 -249 -17 -176 -32 -221 -70 -221 -17
0 -37 -27 -27 -37 22 -22 193 -31 241 -13 41 16 82 57 95 96 6 17 17 104 24
193 14 162 20 185 57 196 34 11 18 39 -26 47 -78 14 -158 9 -200 -12z m170
-53 c-10 -16 -18 -73 -26 -178 -13 -179 -29 -228 -81 -255 l-33 -17 21 24 c39
44 46 72 60 236 13 168 26 213 59 213 14 0 14 -3 0 -23z"/>
<path d="M1795 1788 c-55 -21 -105 -44 -112 -50 -7 -6 -13 -30 -13 -54 0 -37
-3 -44 -20 -44 -13 0 -20 -7 -20 -20 0 -13 7 -20 20 -20 18 0 20 -7 20 -77 0
-157 23 -187 144 -191 100 -4 170 14 174 45 3 17 -3 22 -25 25 l-28 3 -3 98
-3 97 36 0 c28 0 35 4 35 20 0 16 -7 20 -35 20 l-34 0 -3 92 c-2 74 -6 93 -18
94 -8 1 -60 -16 -115 -38z m105 -179 c0 -112 4 -198 10 -210 13 -23 3 -25 -22
-2 -16 14 -18 35 -18 203 0 103 3 190 7 193 19 20 23 -10 23 -184z"/>
<path d="M542 1702 c-63 -23 -81 -37 -65 -53 8 -8 21 -7 48 2 34 12 38 12 51
-6 22 -30 17 -54 -13 -61 -74 -18 -113 -61 -113 -124 0 -49 25 -86 70 -104 55
-22 292 -23 310 -2 8 11 11 54 8 145 -3 143 -14 171 -74 200 -47 23 -161 25
-222 3z m253 -62 c21 -41 22 -270 1 -270 -12 0 -16 25 -18 133 -2 72 -7 140
-12 150 -15 30 12 19 29 -13z m-207 -177 c-3 -77 -3 -78 -28 -75 -88 12 -82
152 7 152 23 0 24 -1 21 -77z"/>
<path d="M933 1710 c-23 -9 -23 -12 -23 -178 0 -117 4 -172 12 -180 8 -8 48
-12 113 -12 65 0 105 4 113 12 8 8 12 63 12 180 0 155 -1 168 -19 178 -24 12
-177 12 -208 0z m197 -180 c0 -100 -4 -160 -10 -160 -6 0 -10 60 -10 160 0
100 4 160 10 160 6 0 10 -60 10 -160z"/>
<path d="M1253 1710 c-23 -9 -23 -13 -23 -178 0 -117 4 -172 12 -180 8 -8 48
-12 113 -12 65 0 105 4 113 12 8 8 12 58 12 159 0 117 3 149 15 159 8 7 22 10
30 6 12 -4 15 -31 15 -158 0 -84 4 -159 9 -166 5 -8 17 -12 27 -10 18 3 19 15
19 164 0 138 -2 164 -18 188 -17 25 -23 27 -60 22 -23 -3 -46 -5 -52 -5 -102
7 -195 6 -212 -1z m205 -188 c-2 -105 -6 -147 -15 -150 -10 -3 -13 33 -13 158
0 145 2 161 15 150 13 -11 15 -38 13 -158z"/>
<path d="M710 1298 c-39 -42 -11 -110 45 -110 35 0 55 25 55 67 0 59 -60 85
-100 43z"/>
<path d="M1230 1293 c-35 -45 -9 -105 46 -105 30 0 64 32 64 62 0 28 -39 70
-65 70 -14 0 -32 -11 -45 -27z"/>
<path d="M961 1224 c-29 -37 -26 -70 9 -105 33 -33 59 -33 95 2 25 24 25 81 0
109 -27 30 -78 27 -104 -6z"/>
<path d="M681 1141 c-12 -8 -12 -40 -2 -223 7 -117 15 -216 18 -221 12 -19 22
10 28 81 7 84 21 130 35 116 5 -5 13 -51 19 -103 11 -99 13 -107 30 -96 7 4
11 57 11 145 0 82 4 141 10 145 14 9 13 138 -2 153 -7 7 -23 12 -36 12 -24 0
-25 -2 -19 -52 4 -35 2 -61 -7 -77 l-13 -24 -13 23 c-7 14 -10 44 -8 76 4 49
3 54 -16 54 -12 0 -27 -4 -35 -9z"/>
<path d="M1201 1141 c-12 -8 -12 -40 -2 -223 16 -264 30 -299 50 -115 5 49 12
91 15 94 15 15 28 -20 36 -100 5 -48 12 -91 15 -97 17 -28 25 14 25 140 0 82
4 141 10 145 6 3 10 39 10 80 0 76 -5 85 -51 85 -18 0 -20 -5 -13 -45 8 -54
-1 -95 -21 -95 -20 0 -29 41 -21 95 7 42 6 45 -16 45 -13 0 -29 -4 -37 -9z"/>
<path d="M958 1058 l-38 -10 0 -82 c0 -46 3 -86 7 -90 4 -4 9 -73 10 -154 4
-160 5 -172 27 -172 11 0 16 18 20 67 18 207 45 211 61 10 6 -65 10 -78 23
-75 14 3 18 22 24 118 4 63 4 134 1 156 -3 25 -1 44 6 48 14 9 15 163 1 171
-6 4 -24 11 -41 15 l-31 9 7 -67 c5 -51 3 -72 -8 -86 -14 -19 -15 -19 -27 3
-8 16 -10 44 -5 87 4 35 5 64 3 63 -2 -1 -20 -6 -40 -11z"/>
<path d="M5 628 c-3 -8 -4 -106 -3 -218 3 -186 5 -205 21 -208 15 -3 17 7 18
95 l0 98 27 -67 c15 -37 33 -73 39 -79 13 -13 14 -11 52 86 l20 50 0 -73 c1
-102 8 -112 79 -112 31 0 63 4 70 8 9 7 12 57 10 218 l-3 209 -54 0 -53 0 -25
-68 c-14 -37 -28 -65 -31 -62 -3 3 -18 33 -33 68 l-28 62 -50 3 c-36 2 -53 -1
-56 -10z"/>
<path d="M1271 517 c-50 -18 -74 -56 -79 -124 -2 -43 2 -67 15 -93 16 -30 16
-39 6 -60 -29 -57 -5 -155 39 -162 13 -2 47 1 76 5 39 7 56 6 68 -4 20 -16 34
2 34 44 0 61 -35 90 -94 77 -44 -10 -63 -5 -76 20 -9 16 -4 18 50 17 45 -1 65
3 86 19 36 26 57 87 50 146 -3 33 -1 50 10 58 15 13 19 42 7 53 -3 4 -12 -2
-20 -13 -14 -20 -14 -20 -41 0 -35 26 -88 33 -131 17z m123 -89 c-5 -17 -3
-20 10 -15 13 5 16 -1 16 -38 0 -53 -21 -80 -51 -65 -25 14 -27 110 -3 134 20
21 37 11 28 -16z"/>
<path d="M1565 516 c-54 -24 -85 -81 -85 -155 0 -132 90 -202 194 -151 49 23
65 55 22 44 -18 -4 -28 0 -40 17 -29 43 -21 59 29 59 l45 0 0 50 c0 109 -80
175 -165 136z m141 -114 c6 -31 6 -32 -30 -32 -33 0 -36 2 -36 29 0 39 27 68
46 49 8 -7 16 -28 20 -46z"/>
<path d="M434 506 c-36 -16 -48 -31 -39 -46 5 -8 11 -7 21 1 20 17 44 3 44
-25 0 -16 -7 -27 -20 -31 -60 -19 -81 -120 -36 -172 23 -26 31 -28 110 -32 85
-3 86 -3 96 24 23 61 4 235 -29 269 -25 24 -105 31 -147 12z m26 -201 c0 -68
-13 -83 -41 -49 -28 34 -9 114 27 114 11 0 14 -16 14 -65z"/>
<path d="M673 513 c-10 -3 -13 -44 -13 -153 0 -165 -3 -160 75 -160 77 0 75
-4 75 146 0 127 1 134 20 134 19 0 20 -7 20 -140 0 -118 2 -140 15 -140 13 0
15 22 15 134 0 186 3 181 -106 183 -49 1 -95 -1 -101 -4z"/>
<path d="M974 506 c-36 -16 -48 -31 -39 -46 5 -8 11 -7 21 1 20 17 44 3 44
-25 0 -16 -7 -27 -20 -31 -32 -10 -60 -54 -60 -96 0 -85 34 -109 152 -109 64
0 69 2 78 26 23 59 3 235 -29 267 -25 25 -105 32 -147 13z m26 -201 c0 -72
-16 -86 -46 -40 -24 37 -3 105 32 105 11 0 14 -16 14 -65z"/>
<path d="M1783 513 c-10 -3 -13 -44 -13 -153 0 -165 -3 -160 75 -160 75 0 75
1 75 106 l0 94 40 44 c26 29 38 49 34 60 -9 24 -21 20 -41 -14 -21 -36 -33
-38 -33 -6 0 13 -7 27 -16 30 -18 7 -103 7 -121 -1z"/>
</g>
</svg>
